<svg width="32" height="33" viewBox="0 0 32 33" fill="none" xmlns="http://www.w3.org/2000/svg">
<mask id="mask0_71720_5497" style="mask-type:alpha" maskUnits="userSpaceOnUse" x="4" y="4" width="24" height="25">
<rect x="4" y="4.96582" width="24" height="24" fill="#D9D9D9"/>
</mask>
<g mask="url(#mask0_71720_5497)">
<path d="M15.9998 18.3659L11.0998 23.2659C10.9165 23.4492 10.6831 23.5409 10.3998 23.5409C10.1165 23.5409 9.88314 23.4492 9.6998 23.2659C9.51647 23.0825 9.4248 22.8492 9.4248 22.5659C9.4248 22.2825 9.51647 22.0492 9.6998 21.8659L14.5998 16.9659L9.6998 12.0659C9.51647 11.8825 9.4248 11.6492 9.4248 11.3659C9.4248 11.0825 9.51647 10.8492 9.6998 10.6659C9.88314 10.4825 10.1165 10.3909 10.3998 10.3909C10.6831 10.3909 10.9165 10.4825 11.0998 10.6659L15.9998 15.5659L20.8998 10.6659C21.0831 10.4825 21.3165 10.3909 21.5998 10.3909C21.8831 10.3909 22.1165 10.4825 22.2998 10.6659C22.4831 10.8492 22.5748 11.0825 22.5748 11.3659C22.5748 11.6492 22.4831 11.8825 22.2998 12.0659L17.3998 16.9659L22.2998 21.8659C22.4831 22.0492 22.5748 22.2825 22.5748 22.5659C22.5748 22.8492 22.4831 23.0825 22.2998 23.2659C22.1165 23.4492 21.8831 23.5409 21.5998 23.5409C21.3165 23.5409 21.0831 23.4492 20.8998 23.2659L15.9998 18.3659Z" fill="white"/>
</g>
</svg>
