<svg width="25" height="21" viewBox="0 0 25 21" fill="none" xmlns="http://www.w3.org/2000/svg">
<path d="M18.7949 2.19232L18.7949 18.8077C18.7944 19.2972 18.5997 19.7665 18.2536 20.1126C17.9075 20.4587 17.4382 20.6534 16.9487 20.6539L13.2564 20.6539C12.7669 20.6534 12.2976 20.4587 11.9515 20.1126C11.6054 19.7665 11.4108 19.2972 11.4103 18.8077L11.4103 2.19232C11.4108 1.70284 11.6054 1.23354 11.9515 0.88743C12.2976 0.541315 12.7669 0.346652 13.2564 0.346162L16.9487 0.346162C17.4382 0.346652 17.9075 0.541314 18.2536 0.887429C18.5997 1.23354 18.7944 1.70284 18.7949 2.19232ZM13.2564 18.8077L16.9487 18.8077L16.9487 2.19232L13.2564 2.19232L13.2564 18.8077ZM13.2564 2.19232L13.2564 18.8077C13.2559 19.2972 13.0613 19.7665 12.7152 20.1126C12.369 20.4587 11.8997 20.6533 11.4103 20.6538L7.71796 20.6538C7.22848 20.6533 6.75919 20.4587 6.41307 20.1126C6.06696 19.7665 5.87229 19.2972 5.87181 18.8077L5.8718 2.1923C5.87229 1.70282 6.06696 1.23353 6.41307 0.887411C6.75919 0.541296 7.22848 0.346634 7.71796 0.346145L11.4103 0.346145C11.8997 0.346633 12.369 0.541295 12.7152 0.887411C13.0613 1.23353 13.2559 1.70284 13.2564 2.19232ZM7.71796 18.8077L11.4103 18.8077L11.4103 2.19232L7.71796 2.1923L7.71796 18.8077ZM7.71796 2.1923L7.71796 18.8077C7.71747 19.2972 7.52281 19.7665 7.17669 20.1126C6.83058 20.4587 6.36129 20.6533 5.87181 20.6538L2.1795 20.6538C1.69002 20.6533 1.22072 20.4587 0.874609 20.1126C0.528494 19.7665 0.333832 19.2972 0.333343 18.8077L0.333343 2.1923C0.333831 1.70282 0.528493 1.23353 0.874608 0.887411C1.22072 0.541296 1.69002 0.346634 2.1795 0.346146L5.8718 0.346145C6.36128 0.346634 6.83058 0.541296 7.17669 0.887411C7.52281 1.23353 7.71747 1.70282 7.71796 2.1923ZM2.1795 18.8077L5.87181 18.8077L5.8718 2.1923L2.1795 2.1923L2.1795 18.8077Z" fill="#CDCDCD"/>
<path d="M24.3333 2.19252L24.3333 18.8079C24.3329 19.2974 24.1382 19.7667 23.7921 20.1128C23.446 20.4589 22.9767 20.6536 22.4872 20.6541L18.7949 20.6541C18.3054 20.6536 17.8361 20.4589 17.49 20.1128C17.1439 19.7667 16.9492 19.2972 16.9487 18.8077L16.9487 2.19232C16.9492 1.70284 17.1439 1.23375 17.49 0.887634C17.8361 0.541518 18.3054 0.346858 18.7949 0.346368L22.4872 0.346368C22.9767 0.346858 23.446 0.541518 23.7921 0.887633C24.1382 1.23375 24.3329 1.70304 24.3333 2.19252ZM18.7949 18.8077L22.4872 18.8079L22.4872 2.19252L18.7949 2.19232L18.7949 18.8077Z" fill="#CDCDCD"/>
</svg>
