<svg width="215" height="106" viewBox="0 0 215 106" fill="none" xmlns="http://www.w3.org/2000/svg">
<path d="M35.1303 22.7852H27.82C27.6864 21.8394 27.4138 20.9993 27.0021 20.2649C26.5904 19.5194 26.0619 18.8852 25.4165 18.3622C24.7712 17.8393 24.0257 17.4387 23.18 17.1605C22.3455 16.8823 21.4387 16.7433 20.4595 16.7433C18.6903 16.7433 17.1493 17.1828 15.8363 18.0618C14.5233 18.9297 13.5052 20.1982 12.782 21.8672C12.0587 23.5251 11.6971 25.5391 11.6971 27.9091C11.6971 30.3459 12.0587 32.3932 12.782 34.0511C13.5163 35.709 14.54 36.9608 15.853 37.8065C17.166 38.6521 18.6848 39.0749 20.4094 39.0749C21.3775 39.0749 22.2732 38.947 23.0966 38.6911C23.9311 38.4351 24.671 38.0624 25.3164 37.5728C25.9618 37.0721 26.4959 36.4657 26.9187 35.7536C27.3526 35.0414 27.6531 34.2292 27.82 33.3168L35.1303 33.3501C34.9412 34.919 34.4683 36.4323 33.7116 37.8899C32.9661 39.3364 31.9592 40.6327 30.6907 41.7788C29.4334 42.9137 27.9312 43.815 26.1843 44.4826C24.4485 45.1391 22.4846 45.4673 20.2926 45.4673C17.2438 45.4673 14.5178 44.7775 12.1143 43.3977C9.72206 42.018 7.83049 40.0207 6.43963 37.4059C5.0599 34.7911 4.37003 31.6255 4.37003 27.9091C4.37003 24.1816 5.07102 21.0104 6.47301 18.3956C7.875 15.7808 9.7777 13.7891 12.1811 12.4205C14.5845 11.0407 17.2884 10.3509 20.2926 10.3509C22.2732 10.3509 24.1091 10.629 25.8004 11.1854C27.5028 11.7417 29.0105 12.554 30.3235 13.6222C31.6365 14.6792 32.7047 15.9755 33.5281 17.511C34.3626 19.0465 34.8967 20.8046 35.1303 22.7852ZM51.7623 45.5007C49.1697 45.5007 46.9276 44.9499 45.036 43.8484C43.1556 42.7357 41.7035 41.189 40.6799 39.2085C39.6562 37.2167 39.1444 34.9079 39.1444 32.282C39.1444 29.6338 39.6562 27.3194 40.6799 25.3388C41.7035 23.3471 43.1556 21.8004 45.036 20.6989C46.9276 19.5862 49.1697 19.0298 51.7623 19.0298C54.3548 19.0298 56.5913 19.5862 58.4718 20.6989C60.3633 21.8004 61.821 23.3471 62.8446 25.3388C63.8683 27.3194 64.3802 29.6338 64.3802 32.282C64.3802 34.9079 63.8683 37.2167 62.8446 39.2085C61.821 41.189 60.3633 42.7357 58.4718 43.8484C56.5913 44.9499 54.3548 45.5007 51.7623 45.5007ZM51.7956 39.9929C52.9751 39.9929 53.9598 39.6591 54.7498 38.9915C55.5398 38.3127 56.1351 37.3892 56.5357 36.2209C56.9474 35.0526 57.1532 33.7229 57.1532 32.2319C57.1532 30.7409 56.9474 29.4112 56.5357 28.2429C56.1351 27.0746 55.5398 26.151 54.7498 25.4723C53.9598 24.7936 52.9751 24.4542 51.7956 24.4542C50.6051 24.4542 49.6036 24.7936 48.7914 25.4723C47.9902 26.151 47.3838 27.0746 46.9721 28.2429C46.5716 29.4112 46.3713 30.7409 46.3713 32.2319C46.3713 33.7229 46.5716 35.0526 46.9721 36.2209C47.3838 37.3892 47.9902 38.3127 48.7914 38.9915C49.6036 39.6591 50.6051 39.9929 51.7956 39.9929ZM76.1135 30.179V45H69.0034V19.3636H75.7797V23.8867H76.0801C76.6475 22.3957 77.5989 21.2163 78.9341 20.3484C80.2694 19.4693 81.8883 19.0298 83.791 19.0298C85.5713 19.0298 87.1235 19.4193 88.4476 20.1982C89.7717 20.977 90.801 22.0897 91.5353 23.5362C92.2697 24.9716 92.6369 26.6851 92.6369 28.6768V45H85.5268V29.9453C85.5379 28.3764 85.1374 27.1525 84.3251 26.2734C83.5128 25.3833 82.3946 24.9382 80.9703 24.9382C80.0134 24.9382 79.1678 25.1441 78.4334 25.5558C77.7102 25.9674 77.1427 26.5683 76.731 27.3583C76.3304 28.1372 76.1246 29.0774 76.1135 30.179ZM111.877 19.3636V24.7045H96.4381V19.3636H111.877ZM99.9431 13.2216H107.053V37.1222C107.053 37.7786 107.153 38.2905 107.354 38.6577C107.554 39.0137 107.832 39.2641 108.188 39.4087C108.555 39.5534 108.978 39.6257 109.457 39.6257C109.79 39.6257 110.124 39.5979 110.458 39.5423C110.792 39.4755 111.048 39.4254 111.226 39.392L112.344 44.6829C111.988 44.7942 111.487 44.9221 110.842 45.0668C110.197 45.2225 109.412 45.3171 108.489 45.3505C106.775 45.4173 105.273 45.1892 103.982 44.6662C102.703 44.1432 101.707 43.331 100.995 42.2294C100.282 41.1278 99.932 39.737 99.9431 38.0568V13.2216ZM123.819 45.484C122.183 45.484 120.725 45.2003 119.446 44.6328C118.166 44.0542 117.154 43.203 116.408 42.0792C115.674 40.9442 115.307 39.5311 115.307 37.8398C115.307 36.4156 115.568 35.2195 116.091 34.2514C116.614 33.2834 117.326 32.5045 118.227 31.9148C119.129 31.325 120.152 30.88 121.298 30.5795C122.456 30.2791 123.668 30.0677 124.937 29.9453C126.428 29.7895 127.63 29.6449 128.542 29.5114C129.454 29.3667 130.116 29.1553 130.528 28.8771C130.94 28.599 131.146 28.1873 131.146 27.642V27.5419C131.146 26.4848 130.812 25.667 130.144 25.0884C129.488 24.5098 128.553 24.2205 127.34 24.2205C126.061 24.2205 125.043 24.5043 124.286 25.0717C123.529 25.6281 123.029 26.3291 122.784 27.1747L116.208 26.6406C116.542 25.0829 117.198 23.7365 118.177 22.6016C119.156 21.4555 120.419 20.5765 121.966 19.9645C123.524 19.3414 125.326 19.0298 127.374 19.0298C128.798 19.0298 130.161 19.1967 131.463 19.5305C132.776 19.8643 133.939 20.3817 134.951 21.0827C135.975 21.7837 136.781 22.685 137.371 23.7866C137.961 24.877 138.256 26.1844 138.256 27.7088V45H131.513V41.445H131.313C130.901 42.2461 130.35 42.9527 129.66 43.5646C128.97 44.1655 128.141 44.6384 127.173 44.9833C126.205 45.3171 125.087 45.484 123.819 45.484ZM125.855 40.5771C126.901 40.5771 127.824 40.3712 128.625 39.9595C129.427 39.5367 130.055 38.9692 130.511 38.2571C130.968 37.545 131.196 36.7383 131.196 35.837V33.1165C130.973 33.2611 130.667 33.3946 130.278 33.517C129.899 33.6283 129.471 33.734 128.993 33.8342C128.514 33.9232 128.036 34.0066 127.557 34.0845C127.079 34.1513 126.645 34.2125 126.255 34.2681C125.421 34.3905 124.692 34.5852 124.069 34.8523C123.446 35.1193 122.962 35.4809 122.617 35.9371C122.272 36.3822 122.1 36.9386 122.1 37.6062C122.1 38.5742 122.45 39.3142 123.151 39.826C123.863 40.3267 124.764 40.5771 125.855 40.5771ZM155.355 45.5007C152.729 45.5007 150.47 44.9444 148.579 43.8317C146.698 42.7079 145.252 41.1501 144.239 39.1584C143.238 37.1667 142.737 34.8745 142.737 32.282C142.737 29.656 143.243 27.3527 144.256 25.3722C145.28 23.3804 146.732 21.8282 148.612 20.7156C150.493 19.5917 152.729 19.0298 155.322 19.0298C157.558 19.0298 159.516 19.436 161.197 20.2482C162.877 21.0605 164.206 22.201 165.186 23.6697C166.165 25.1385 166.704 26.8632 166.805 28.8438H160.095C159.906 27.5642 159.405 26.5349 158.593 25.756C157.792 24.966 156.74 24.571 155.438 24.571C154.337 24.571 153.374 24.8714 152.551 25.4723C151.739 26.062 151.105 26.9244 150.648 28.0593C150.192 29.1942 149.964 30.5684 149.964 32.1818C149.964 33.8175 150.187 35.2083 150.632 36.3544C151.088 37.5005 151.728 38.3739 152.551 38.9748C153.374 39.5756 154.337 39.8761 155.438 39.8761C156.251 39.8761 156.98 39.7092 157.625 39.3754C158.281 39.0415 158.821 38.5575 159.244 37.9233C159.678 37.2779 159.962 36.5046 160.095 35.6033H166.805C166.693 37.5617 166.159 39.2863 165.202 40.7773C164.257 42.2572 162.949 43.4144 161.28 44.2489C159.611 45.0835 157.636 45.5007 155.355 45.5007ZM184.993 19.3636V24.7045H169.554V19.3636H184.993ZM173.059 13.2216H180.169V37.1222C180.169 37.7786 180.27 38.2905 180.47 38.6577C180.67 39.0137 180.948 39.2641 181.304 39.4087C181.672 39.5534 182.094 39.6257 182.573 39.6257C182.907 39.6257 183.24 39.5979 183.574 39.5423C183.908 39.4755 184.164 39.4254 184.342 39.392L185.46 44.6829C185.104 44.7942 184.603 44.9221 183.958 45.0668C183.313 45.2225 182.528 45.3171 181.605 45.3505C179.891 45.4173 178.389 45.1892 177.098 44.6662C175.819 44.1432 174.823 43.331 174.111 42.2294C173.399 41.1278 173.048 39.737 173.059 38.0568V13.2216ZM210.633 26.674L204.124 27.0746C204.013 26.5182 203.774 26.0175 203.407 25.5724C203.039 25.1162 202.555 24.7546 201.954 24.4876C201.365 24.2094 200.658 24.0703 199.835 24.0703C198.733 24.0703 197.804 24.304 197.047 24.7713C196.291 25.2275 195.913 25.8395 195.913 26.6072C195.913 27.2192 196.157 27.7366 196.647 28.1594C197.137 28.5823 197.977 28.9216 199.167 29.1776L203.807 30.1122C206.3 30.6241 208.158 31.4474 209.382 32.5824C210.606 33.7173 211.218 35.2083 211.218 37.0554C211.218 38.7356 210.722 40.2099 209.732 41.4783C208.753 42.7468 207.407 43.7371 205.693 44.4492C203.991 45.1502 202.027 45.5007 199.801 45.5007C196.408 45.5007 193.704 44.7942 191.69 43.381C189.687 41.9568 188.513 40.0207 188.168 37.5728L195.161 37.2056C195.373 38.2404 195.885 39.0304 196.697 39.5756C197.509 40.1097 198.55 40.3768 199.818 40.3768C201.064 40.3768 202.066 40.1375 202.822 39.6591C203.59 39.1695 203.98 38.5408 203.991 37.7731C203.98 37.1277 203.707 36.5992 203.173 36.1875C202.639 35.7647 201.815 35.442 200.703 35.2195L196.263 34.3349C193.759 33.8342 191.896 32.9663 190.672 31.7312C189.459 30.4961 188.853 28.9216 188.853 27.0078C188.853 25.361 189.298 23.9424 190.188 22.7518C191.089 21.5612 192.352 20.6432 193.976 19.9979C195.612 19.3525 197.526 19.0298 199.718 19.0298C202.956 19.0298 205.504 19.7141 207.362 21.0827C209.231 22.4513 210.322 24.3151 210.633 26.674Z" fill="black"/>
<path d="M3.76136 83V68.4545H8.84659C9.85985 68.4545 10.6955 68.6297 11.3537 68.9801C12.0118 69.3258 12.5019 69.7921 12.8239 70.3793C13.1458 70.9616 13.3068 71.608 13.3068 72.3182C13.3068 72.9432 13.1955 73.4593 12.973 73.8665C12.7552 74.2737 12.4664 74.5956 12.1065 74.8324C11.7514 75.0691 11.3655 75.2443 10.9489 75.358V75.5C11.3939 75.5284 11.8414 75.6847 12.2912 75.9688C12.741 76.2528 13.1174 76.66 13.4205 77.1903C13.7235 77.7206 13.875 78.3693 13.875 79.1364C13.875 79.8655 13.7093 80.5213 13.3778 81.1037C13.0464 81.6861 12.5232 82.1477 11.8082 82.4886C11.0933 82.8295 10.1629 83 9.01705 83H3.76136ZM5.52273 81.4375H9.01705C10.1676 81.4375 10.9844 81.215 11.4673 80.7699C11.955 80.3201 12.1989 79.7756 12.1989 79.1364C12.1989 78.6439 12.0734 78.1894 11.8224 77.7727C11.5715 77.3513 11.214 77.0152 10.75 76.7642C10.286 76.5085 9.73674 76.3807 9.10227 76.3807H5.52273V81.4375ZM5.52273 74.8466H8.78977C9.32008 74.8466 9.7983 74.7424 10.2244 74.5341C10.6553 74.3258 10.9962 74.0322 11.2472 73.6534C11.5028 73.2746 11.6307 72.8295 11.6307 72.3182C11.6307 71.679 11.4081 71.1368 10.9631 70.6918C10.518 70.242 9.8125 70.017 8.84659 70.017H5.52273V74.8466ZM21.1158 83.2273C20.0646 83.2273 19.1579 82.9953 18.3956 82.5312C17.638 82.0625 17.0533 81.4091 16.6413 80.571C16.2341 79.7282 16.0305 78.7481 16.0305 77.6307C16.0305 76.5133 16.2341 75.5284 16.6413 74.6761C17.0533 73.8191 17.6262 73.1515 18.3601 72.6733C19.0987 72.1903 19.9605 71.9489 20.9453 71.9489C21.5135 71.9489 22.0746 72.0436 22.6286 72.233C23.1825 72.4223 23.6868 72.7301 24.1413 73.1562C24.5959 73.5777 24.9581 74.1364 25.228 74.8324C25.4979 75.5284 25.6328 76.3854 25.6328 77.4034V78.1136H17.2237V76.6648H23.9283C23.9283 76.0492 23.8052 75.5 23.5589 75.017C23.3175 74.5341 22.9718 74.1529 22.522 73.8736C22.0769 73.5942 21.5514 73.4545 20.9453 73.4545C20.2777 73.4545 19.7 73.6203 19.2124 73.9517C18.7294 74.2784 18.3577 74.7045 18.0973 75.2301C17.8369 75.7557 17.7067 76.3191 17.7067 76.9205V77.8864C17.7067 78.7102 17.8487 79.4086 18.1328 79.9815C18.4216 80.5497 18.8217 80.983 19.3331 81.2812C19.8445 81.5748 20.4387 81.7216 21.1158 81.7216C21.5561 81.7216 21.9538 81.66 22.3089 81.5369C22.6688 81.4091 22.9789 81.2197 23.2393 80.9688C23.4998 80.7131 23.701 80.3958 23.843 80.017L25.4624 80.4716C25.2919 81.0208 25.0054 81.5038 24.603 81.9205C24.2005 82.3324 23.7034 82.6544 23.1115 82.8864C22.5196 83.1136 21.8544 83.2273 21.1158 83.2273ZM32.9268 72.0909V73.5114H27.2734V72.0909H32.9268ZM28.9212 69.4773H30.5973V79.875C30.5973 80.3485 30.666 80.7036 30.8033 80.9403C30.9453 81.1723 31.1252 81.3286 31.343 81.4091C31.5656 81.4848 31.8 81.5227 32.0462 81.5227C32.2308 81.5227 32.3823 81.5133 32.5007 81.4943C32.6191 81.4706 32.7138 81.4517 32.7848 81.4375L33.1257 82.9432C33.0121 82.9858 32.8535 83.0284 32.6499 83.071C32.4463 83.1184 32.1882 83.142 31.8757 83.142C31.4022 83.142 30.9382 83.0402 30.4837 82.8366C30.0339 82.633 29.6598 82.3229 29.3615 81.9062C29.0679 81.4896 28.9212 80.964 28.9212 80.3295V69.4773ZM40.1925 72.0909V73.5114H34.5391V72.0909H40.1925ZM36.1868 69.4773H37.8629V79.875C37.8629 80.3485 37.9316 80.7036 38.0689 80.9403C38.2109 81.1723 38.3909 81.3286 38.6087 81.4091C38.8312 81.4848 39.0656 81.5227 39.3118 81.5227C39.4964 81.5227 39.648 81.5133 39.7663 81.4943C39.8847 81.4706 39.9794 81.4517 40.0504 81.4375L40.3913 82.9432C40.2777 82.9858 40.1191 83.0284 39.9155 83.071C39.7119 83.1184 39.4538 83.142 39.1413 83.142C38.6679 83.142 38.2038 83.0402 37.7493 82.8366C37.2995 82.633 36.9254 82.3229 36.6271 81.9062C36.3336 81.4896 36.1868 80.964 36.1868 80.3295V69.4773ZM47.1705 83.2273C46.1193 83.2273 45.2126 82.9953 44.4503 82.5312C43.6927 82.0625 43.108 81.4091 42.696 80.571C42.2888 79.7282 42.0852 78.7481 42.0852 77.6307C42.0852 76.5133 42.2888 75.5284 42.696 74.6761C43.108 73.8191 43.6809 73.1515 44.4148 72.6733C45.1534 72.1903 46.0152 71.9489 47 71.9489C47.5682 71.9489 48.1293 72.0436 48.6832 72.233C49.2372 72.4223 49.7415 72.7301 50.196 73.1562C50.6506 73.5777 51.0128 74.1364 51.2827 74.8324C51.5526 75.5284 51.6875 76.3854 51.6875 77.4034V78.1136H43.2784V76.6648H49.983C49.983 76.0492 49.8598 75.5 49.6136 75.017C49.3722 74.5341 49.0265 74.1529 48.5767 73.8736C48.1316 73.5942 47.6061 73.4545 47 73.4545C46.3324 73.4545 45.7547 73.6203 45.267 73.9517C44.7841 74.2784 44.4124 74.7045 44.152 75.2301C43.8916 75.7557 43.7614 76.3191 43.7614 76.9205V77.8864C43.7614 78.7102 43.9034 79.4086 44.1875 79.9815C44.4763 80.5497 44.8764 80.983 45.3878 81.2812C45.8991 81.5748 46.4934 81.7216 47.1705 81.7216C47.6108 81.7216 48.0085 81.66 48.3636 81.5369C48.7235 81.4091 49.0336 81.2197 49.294 80.9688C49.5545 80.7131 49.7557 80.3958 49.8977 80.017L51.517 80.4716C51.3466 81.0208 51.0601 81.5038 50.6577 81.9205C50.2552 82.3324 49.758 82.6544 49.1662 82.8864C48.5743 83.1136 47.9091 83.2273 47.1705 83.2273ZM54.2372 83V72.0909H55.8565V73.7386H55.9702C56.169 73.1989 56.5289 72.7609 57.0497 72.4247C57.5705 72.0885 58.1577 71.9205 58.8111 71.9205C58.9342 71.9205 59.0881 71.9228 59.2727 71.9276C59.4574 71.9323 59.5971 71.9394 59.6918 71.9489V73.6534C59.6349 73.6392 59.5047 73.6179 59.3011 73.5895C59.1023 73.5563 58.8916 73.5398 58.669 73.5398C58.1387 73.5398 57.6652 73.651 57.2486 73.8736C56.8366 74.0914 56.5099 74.3944 56.2685 74.7827C56.0317 75.1662 55.9134 75.6042 55.9134 76.0966V83H54.2372ZM69.7752 83L66.4513 72.0909H68.2127L70.5707 80.4432H70.6843L73.0138 72.0909H74.8036L77.1048 80.4148H77.2184L79.5763 72.0909H81.3377L78.0138 83H76.3661L73.9798 74.6193H73.8093L71.4229 83H69.7752ZM83.5536 83V72.0909H85.2298V83H83.5536ZM84.4059 70.2727C84.0792 70.2727 83.7975 70.1615 83.5607 69.9389C83.3287 69.7164 83.2127 69.4489 83.2127 69.1364C83.2127 68.8239 83.3287 68.5563 83.5607 68.3338C83.7975 68.1113 84.0792 68 84.4059 68C84.7326 68 85.012 68.1113 85.244 68.3338C85.4807 68.5563 85.5991 68.8239 85.5991 69.1364C85.5991 69.4489 85.4807 69.7164 85.244 69.9389C85.012 70.1615 84.7326 70.2727 84.4059 70.2727ZM93.044 72.0909V73.5114H87.3906V72.0909H93.044ZM89.0384 69.4773H90.7145V79.875C90.7145 80.3485 90.7831 80.7036 90.9205 80.9403C91.0625 81.1723 91.2424 81.3286 91.4602 81.4091C91.6828 81.4848 91.9171 81.5227 92.1634 81.5227C92.348 81.5227 92.4995 81.5133 92.6179 81.4943C92.7363 81.4706 92.831 81.4517 92.902 81.4375L93.2429 82.9432C93.1293 82.9858 92.9706 83.0284 92.767 83.071C92.5634 83.1184 92.3054 83.142 91.9929 83.142C91.5194 83.142 91.0554 83.0402 90.6009 82.8366C90.151 82.633 89.777 82.3229 89.4787 81.9062C89.1851 81.4896 89.0384 80.964 89.0384 80.3295V69.4773ZM97.4759 76.4375V83H95.7997V68.4545H97.4759V73.7955H97.6179C97.8736 73.232 98.2571 72.7846 98.7685 72.4531C99.2846 72.117 99.9711 71.9489 100.828 71.9489C101.571 71.9489 102.223 72.098 102.781 72.3963C103.34 72.6899 103.773 73.142 104.081 73.7528C104.393 74.3589 104.55 75.1307 104.55 76.0682V83H102.874V76.1818C102.874 75.3153 102.649 74.6454 102.199 74.1719C101.754 73.6937 101.136 73.4545 100.345 73.4545C99.7959 73.4545 99.3035 73.5705 98.8679 73.8026C98.437 74.0346 98.0961 74.3731 97.8452 74.8182C97.599 75.2633 97.4759 75.803 97.4759 76.4375ZM116.451 83.2557C115.76 83.2557 115.133 83.1255 114.569 82.8651C114.006 82.5999 113.558 82.2188 113.227 81.7216C112.895 81.2197 112.73 80.6136 112.73 79.9034C112.73 79.2784 112.853 78.7718 113.099 78.3835C113.345 77.9905 113.674 77.6828 114.086 77.4602C114.498 77.2377 114.953 77.072 115.45 76.9631C115.952 76.8494 116.456 76.7595 116.963 76.6932C117.626 76.608 118.163 76.544 118.575 76.5014C118.992 76.4541 119.295 76.3759 119.484 76.267C119.678 76.1581 119.775 75.9687 119.775 75.6989V75.642C119.775 74.9413 119.583 74.3968 119.2 74.0085C118.821 73.6203 118.246 73.4261 117.474 73.4261C116.674 73.4261 116.047 73.6013 115.592 73.9517C115.137 74.3021 114.818 74.6761 114.633 75.0739L113.042 74.5057C113.326 73.8428 113.705 73.3267 114.179 72.9574C114.657 72.5833 115.178 72.3229 115.741 72.1761C116.309 72.0246 116.868 71.9489 117.417 71.9489C117.768 71.9489 118.17 71.9915 118.625 72.0767C119.084 72.1572 119.527 72.3253 119.953 72.581C120.384 72.8366 120.741 73.2225 121.025 73.7386C121.309 74.2547 121.451 74.946 121.451 75.8125V83H119.775V81.5227H119.69C119.576 81.7595 119.387 82.0128 119.122 82.2827C118.857 82.5526 118.504 82.7822 118.064 82.9716C117.623 83.161 117.086 83.2557 116.451 83.2557ZM116.707 81.75C117.37 81.75 117.929 81.6198 118.383 81.3594C118.842 81.099 119.188 80.7628 119.42 80.3509C119.657 79.9389 119.775 79.5057 119.775 79.0511V77.517C119.704 77.6023 119.548 77.6804 119.306 77.7514C119.07 77.8177 118.795 77.8769 118.483 77.929C118.175 77.9763 117.874 78.0189 117.581 78.0568C117.292 78.09 117.057 78.1184 116.877 78.142C116.442 78.1989 116.035 78.2912 115.656 78.419C115.282 78.5421 114.979 78.7292 114.747 78.9801C114.52 79.2263 114.406 79.5625 114.406 79.9886C114.406 80.571 114.621 81.0114 115.052 81.3097C115.488 81.6032 116.039 81.75 116.707 81.75ZM134.88 72.0909V73.5114H129.227V72.0909H134.88ZM130.874 69.4773H132.55V79.875C132.55 80.3485 132.619 80.7036 132.756 80.9403C132.898 81.1723 133.078 81.3286 133.296 81.4091C133.519 81.4848 133.753 81.5227 133.999 81.5227C134.184 81.5227 134.335 81.5133 134.454 81.4943C134.572 81.4706 134.667 81.4517 134.738 81.4375L135.079 82.9432C134.965 82.9858 134.807 83.0284 134.603 83.071C134.399 83.1184 134.141 83.142 133.829 83.142C133.355 83.142 132.891 83.0402 132.437 82.8366C131.987 82.633 131.613 82.3229 131.315 81.9062C131.021 81.4896 130.874 80.964 130.874 80.3295V69.4773ZM141.858 83.2273C140.807 83.2273 139.9 82.9953 139.138 82.5312C138.38 82.0625 137.795 81.4091 137.384 80.571C136.976 79.7282 136.773 78.7481 136.773 77.6307C136.773 76.5133 136.976 75.5284 137.384 74.6761C137.795 73.8191 138.368 73.1515 139.102 72.6733C139.841 72.1903 140.703 71.9489 141.688 71.9489C142.256 71.9489 142.817 72.0436 143.371 72.233C143.925 72.4223 144.429 72.7301 144.884 73.1562C145.338 73.5777 145.7 74.1364 145.97 74.8324C146.24 75.5284 146.375 76.3854 146.375 77.4034V78.1136H137.966V76.6648H144.67C144.67 76.0492 144.547 75.5 144.301 75.017C144.06 74.5341 143.714 74.1529 143.264 73.8736C142.819 73.5942 142.294 73.4545 141.688 73.4545C141.02 73.4545 140.442 73.6203 139.955 73.9517C139.472 74.2784 139.1 74.7045 138.839 75.2301C138.579 75.7557 138.449 76.3191 138.449 76.9205V77.8864C138.449 78.7102 138.591 79.4086 138.875 79.9815C139.164 80.5497 139.564 80.983 140.075 81.2812C140.587 81.5748 141.181 81.7216 141.858 81.7216C142.298 81.7216 142.696 81.66 143.051 81.5369C143.411 81.4091 143.721 81.2197 143.982 80.9688C144.242 80.7131 144.443 80.3958 144.585 80.017L146.205 80.4716C146.034 81.0208 145.748 81.5038 145.345 81.9205C144.943 82.3324 144.446 82.6544 143.854 82.8864C143.262 83.1136 142.597 83.2273 141.858 83.2273ZM152.135 83.2557C151.444 83.2557 150.816 83.1255 150.253 82.8651C149.689 82.5999 149.242 82.2188 148.911 81.7216C148.579 81.2197 148.413 80.6136 148.413 79.9034C148.413 79.2784 148.536 78.7718 148.783 78.3835C149.029 77.9905 149.358 77.6828 149.77 77.4602C150.182 77.2377 150.636 77.072 151.134 76.9631C151.635 76.8494 152.14 76.7595 152.646 76.6932C153.309 76.608 153.847 76.544 154.259 76.5014C154.675 76.4541 154.978 76.3759 155.168 76.267C155.362 76.1581 155.459 75.9687 155.459 75.6989V75.642C155.459 74.9413 155.267 74.3968 154.884 74.0085C154.505 73.6203 153.929 73.4261 153.158 73.4261C152.357 73.4261 151.73 73.6013 151.276 73.9517C150.821 74.3021 150.501 74.6761 150.317 75.0739L148.726 74.5057C149.01 73.8428 149.389 73.3267 149.862 72.9574C150.34 72.5833 150.861 72.3229 151.425 72.1761C151.993 72.0246 152.552 71.9489 153.101 71.9489C153.451 71.9489 153.854 71.9915 154.308 72.0767C154.768 72.1572 155.21 72.3253 155.636 72.581C156.067 72.8366 156.425 73.2225 156.709 73.7386C156.993 74.2547 157.135 74.946 157.135 75.8125V83H155.459V81.5227H155.374C155.26 81.7595 155.071 82.0128 154.805 82.2827C154.54 82.5526 154.188 82.7822 153.747 82.9716C153.307 83.161 152.769 83.2557 152.135 83.2557ZM152.391 81.75C153.054 81.75 153.612 81.6198 154.067 81.3594C154.526 81.099 154.872 80.7628 155.104 80.3509C155.34 79.9389 155.459 79.5057 155.459 79.0511V77.517C155.388 77.6023 155.232 77.6804 154.99 77.7514C154.753 77.8177 154.479 77.8769 154.166 77.929C153.858 77.9763 153.558 78.0189 153.264 78.0568C152.975 78.09 152.741 78.1184 152.561 78.142C152.125 78.1989 151.718 78.2912 151.339 78.419C150.965 78.5421 150.662 78.7292 150.43 78.9801C150.203 79.2263 150.089 79.5625 150.089 79.9886C150.089 80.571 150.305 81.0114 150.736 81.3097C151.171 81.6032 151.723 81.75 152.391 81.75ZM160.194 83V72.0909H161.814V73.7955H161.956C162.183 73.2131 162.55 72.7609 163.056 72.4389C163.563 72.1122 164.172 71.9489 164.882 71.9489C165.601 71.9489 166.2 72.1122 166.679 72.4389C167.162 72.7609 167.538 73.2131 167.808 73.7955H167.922C168.201 73.232 168.62 72.7846 169.179 72.4531C169.737 72.117 170.407 71.9489 171.189 71.9489C172.164 71.9489 172.962 72.2543 173.582 72.8651C174.202 73.4711 174.512 74.4157 174.512 75.6989V83H172.836V75.6989C172.836 74.8939 172.616 74.3187 172.176 73.973C171.735 73.6274 171.217 73.4545 170.62 73.4545C169.853 73.4545 169.259 73.6866 168.838 74.1506C168.416 74.6098 168.206 75.1922 168.206 75.8977V83H166.501V75.5284C166.501 74.9081 166.3 74.4086 165.897 74.0298C165.495 73.6463 164.976 73.4545 164.342 73.4545C163.906 73.4545 163.499 73.5705 163.12 73.8026C162.746 74.0346 162.443 74.3565 162.211 74.7685C161.984 75.1757 161.87 75.6468 161.87 76.1818V83H160.194Z" fill="#2A3647"/>
<path d="M92 104H2" stroke="#29ABE2" stroke-width="3" stroke-linecap="round"/>
</svg>
