<svg width="32" height="32" viewBox="0 0 32 32" fill="none" xmlns="http://www.w3.org/2000/svg">
<g clip-path="url(#clip0_136159_4667)">
<path d="M23.5685 19.1667L8.43151 19.1667C8.18446 19.1667 7.94752 19.0679 7.77283 18.8919C7.59814 18.7159 7.5 18.4773 7.5 18.2284C7.5 17.9796 7.59814 17.7409 7.77283 17.565C7.94752 17.389 8.18446 17.2902 8.43151 17.2902L23.5685 17.2902C23.8155 17.2902 24.0525 17.389 24.2272 17.565C24.4019 17.7409 24.5 17.9796 24.5 18.2284C24.5 18.4773 24.4019 18.7159 24.2272 18.8919C24.0525 19.0679 23.8155 19.1667 23.5685 19.1667Z" fill="#FFA800"/>
<path d="M23.5685 14.7099L8.43151 14.7099C8.18446 14.7099 7.94752 14.6111 7.77283 14.4351C7.59814 14.2591 7.5 14.0205 7.5 13.7716C7.5 13.5228 7.59814 13.2841 7.77283 13.1082C7.94752 12.9322 8.18446 12.8334 8.43151 12.8334L23.5685 12.8334C23.8155 12.8334 24.0525 12.9322 24.2272 13.1082C24.4019 13.2841 24.5 13.5228 24.5 13.7716C24.5 14.0205 24.4019 14.2591 24.2272 14.4351C24.0525 14.6111 23.8155 14.7099 23.5685 14.7099Z" fill="#FFA800"/>
</g>
<defs>
<clipPath id="clip0_136159_4667">
<rect width="17" height="6.33333" fill="white" transform="translate(7.5 12.8334)"/>
</clipPath>
</defs>
</svg>
