<svg width="320" height="82" viewBox="0 0 320 82" fill="none" xmlns="http://www.w3.org/2000/svg">
<g filter="url(#filter0_d_70877_6386)">
<g filter="url(#filter1_d_70877_6386)">
<rect x="4" y="4" width="312" height="74" rx="20" fill="#2A3647" shape-rendering="crispEdges"/>
<path d="M29.5114 33.4545H31.5284L35.5625 40.2443H35.733L39.767 33.4545H41.7841L36.5284 42.0057V48H34.767V42.0057L29.5114 33.4545ZM46.7237 48.2273C45.7389 48.2273 44.8748 47.9929 44.1314 47.5241C43.3928 47.0554 42.8151 46.3996 42.3984 45.5568C41.9865 44.714 41.7805 43.7292 41.7805 42.6023C41.7805 41.4659 41.9865 40.474 42.3984 39.6264C42.8151 38.7789 43.3928 38.1207 44.1314 37.652C44.8748 37.1832 45.7389 36.9489 46.7237 36.9489C47.7086 36.9489 48.5703 37.1832 49.3089 37.652C50.0523 38.1207 50.63 38.7789 51.0419 39.6264C51.4586 40.474 51.6669 41.4659 51.6669 42.6023C51.6669 43.7292 51.4586 44.714 51.0419 45.5568C50.63 46.3996 50.0523 47.0554 49.3089 47.5241C48.5703 47.9929 47.7086 48.2273 46.7237 48.2273ZM46.7237 46.7216C47.4718 46.7216 48.0874 46.5298 48.5703 46.1463C49.0533 45.7628 49.4107 45.2585 49.6428 44.6335C49.8748 44.0085 49.9908 43.3314 49.9908 42.6023C49.9908 41.8731 49.8748 41.1937 49.6428 40.5639C49.4107 39.9342 49.0533 39.4252 48.5703 39.0369C48.0874 38.6487 47.4718 38.4545 46.7237 38.4545C45.9756 38.4545 45.3601 38.6487 44.8771 39.0369C44.3942 39.4252 44.0367 39.9342 43.8047 40.5639C43.5727 41.1937 43.4567 41.8731 43.4567 42.6023C43.4567 43.3314 43.5727 44.0085 43.8047 44.6335C44.0367 45.2585 44.3942 45.7628 44.8771 46.1463C45.3601 46.5298 45.9756 46.7216 46.7237 46.7216ZM61.1005 43.5398V37.0909H62.7766V48H61.1005V46.1534H60.9869C60.7312 46.7074 60.3335 47.1785 59.7937 47.5668C59.2539 47.9503 58.5721 48.142 57.7482 48.142C57.0664 48.142 56.4603 47.9929 55.93 47.6946C55.3997 47.3916 54.9831 46.937 54.68 46.331C54.377 45.7202 54.2255 44.9508 54.2255 44.0227V37.0909H55.9016V43.9091C55.9016 44.7045 56.1242 45.339 56.5692 45.8125C57.0191 46.286 57.592 46.5227 58.288 46.5227C58.7047 46.5227 59.1284 46.4162 59.5593 46.2031C59.9949 45.9901 60.3595 45.6634 60.6531 45.223C60.9513 44.7827 61.1005 44.2216 61.1005 43.5398ZM79.6534 37.0909C79.5682 36.3712 79.2225 35.8125 78.6165 35.4148C78.0104 35.017 77.267 34.8182 76.3864 34.8182C75.7424 34.8182 75.179 34.9223 74.696 35.1307C74.2178 35.339 73.8438 35.6255 73.5739 35.9901C73.3087 36.3546 73.1761 36.7689 73.1761 37.233C73.1761 37.6212 73.2685 37.955 73.4531 38.2344C73.6425 38.509 73.884 38.7386 74.1776 38.9233C74.4711 39.1032 74.7789 39.2524 75.1009 39.3707C75.4228 39.4844 75.7188 39.5767 75.9886 39.6477L77.4659 40.0455C77.8447 40.1449 78.2661 40.2822 78.7301 40.4574C79.1989 40.6326 79.6463 40.8717 80.0724 41.1747C80.5033 41.473 80.8584 41.8565 81.1378 42.3253C81.4171 42.794 81.5568 43.3693 81.5568 44.0511C81.5568 44.8371 81.3509 45.5473 80.9389 46.1818C80.5317 46.8163 79.9351 47.3205 79.1491 47.6946C78.3679 48.0687 77.4186 48.2557 76.3011 48.2557C75.2595 48.2557 74.3575 48.0876 73.5952 47.7514C72.8376 47.4152 72.241 46.9465 71.8054 46.3452C71.3745 45.7438 71.1307 45.0455 71.0739 44.25H72.892C72.9394 44.7992 73.1241 45.2538 73.446 45.6136C73.7727 45.9687 74.1847 46.2339 74.6818 46.4091C75.1837 46.5795 75.7235 46.6648 76.3011 46.6648C76.9735 46.6648 77.5772 46.5559 78.1122 46.3381C78.6473 46.1155 79.071 45.8078 79.3835 45.4148C79.696 45.017 79.8523 44.553 79.8523 44.0227C79.8523 43.5398 79.7173 43.1468 79.4474 42.8438C79.1776 42.5407 78.8224 42.2945 78.3821 42.1051C77.9418 41.9157 77.4659 41.75 76.9545 41.608L75.1648 41.0966C74.0284 40.7699 73.1288 40.3035 72.4659 39.6974C71.803 39.0914 71.4716 38.2983 71.4716 37.3182C71.4716 36.5038 71.6918 35.7936 72.1321 35.1875C72.5772 34.5767 73.1738 34.1032 73.9219 33.767C74.6747 33.4261 75.5152 33.2557 76.4432 33.2557C77.3807 33.2557 78.214 33.4238 78.9432 33.7599C79.6723 34.0914 80.25 34.5459 80.6761 35.1236C81.107 35.7012 81.3343 36.357 81.358 37.0909H79.6534ZM84.2255 48V37.0909H85.9016V48H84.2255ZM85.0778 35.2727C84.7511 35.2727 84.4693 35.1615 84.2326 34.9389C84.0006 34.7164 83.8846 34.4489 83.8846 34.1364C83.8846 33.8239 84.0006 33.5563 84.2326 33.3338C84.4693 33.1113 84.7511 33 85.0778 33C85.4045 33 85.6838 33.1113 85.9158 33.3338C86.1526 33.5563 86.271 33.8239 86.271 34.1364C86.271 34.4489 86.1526 34.7164 85.9158 34.9389C85.6838 35.1615 85.4045 35.2727 85.0778 35.2727ZM93.375 52.3182C92.5653 52.3182 91.8693 52.214 91.2869 52.0057C90.7045 51.8021 90.2192 51.5322 89.831 51.196C89.4474 50.8646 89.142 50.5095 88.9148 50.1307L90.25 49.1932C90.4015 49.392 90.5933 49.6193 90.8253 49.875C91.0573 50.1354 91.3745 50.3603 91.777 50.5497C92.1842 50.7438 92.7169 50.8409 93.375 50.8409C94.2557 50.8409 94.9825 50.6278 95.5554 50.2017C96.1283 49.7756 96.4148 49.108 96.4148 48.1989V45.983H96.2727C96.1496 46.1818 95.9744 46.428 95.7472 46.7216C95.5246 47.0104 95.2027 47.2685 94.7812 47.4957C94.3646 47.7183 93.8011 47.8295 93.0909 47.8295C92.2102 47.8295 91.4195 47.6212 90.7188 47.2045C90.0227 46.7879 89.4711 46.1818 89.0639 45.3864C88.6615 44.5909 88.4602 43.625 88.4602 42.4886C88.4602 41.3712 88.6567 40.3982 89.0497 39.5696C89.4427 38.7363 89.9896 38.0923 90.6903 37.6378C91.3911 37.1785 92.2008 36.9489 93.1193 36.9489C93.8295 36.9489 94.393 37.0672 94.8097 37.304C95.2311 37.536 95.553 37.8011 95.7756 38.0994C96.0028 38.393 96.178 38.6345 96.3011 38.8239H96.4716V37.0909H98.0909V48.3125C98.0909 49.25 97.8778 50.0123 97.4517 50.5994C97.0303 51.1913 96.4621 51.6245 95.7472 51.8991C95.0369 52.1785 94.2462 52.3182 93.375 52.3182ZM93.3182 46.3239C93.9905 46.3239 94.5587 46.17 95.0227 45.8622C95.4867 45.5545 95.8395 45.1117 96.081 44.5341C96.3224 43.9564 96.4432 43.2652 96.4432 42.4602C96.4432 41.6742 96.3248 40.9806 96.0881 40.3793C95.8513 39.7779 95.5009 39.3068 95.0369 38.9659C94.5729 38.625 94 38.4545 93.3182 38.4545C92.608 38.4545 92.0161 38.6345 91.5426 38.9943C91.0739 39.3542 90.7211 39.8371 90.4844 40.4432C90.2524 41.0492 90.1364 41.7216 90.1364 42.4602C90.1364 43.2178 90.2547 43.8878 90.4915 44.4702C90.733 45.0478 91.0881 45.5024 91.5568 45.8338C92.0303 46.1605 92.6174 46.3239 93.3182 46.3239ZM102.835 41.4375V48H101.159V37.0909H102.778V38.7955H102.92C103.176 38.2415 103.564 37.7964 104.085 37.4602C104.606 37.1193 105.278 36.9489 106.102 36.9489C106.841 36.9489 107.487 37.1004 108.041 37.4034C108.595 37.7017 109.026 38.1562 109.334 38.767C109.642 39.3731 109.795 40.1402 109.795 41.0682V48H108.119V41.1818C108.119 40.3248 107.897 39.6572 107.452 39.179C107.007 38.696 106.396 38.4545 105.619 38.4545C105.084 38.4545 104.606 38.5705 104.185 38.8026C103.768 39.0346 103.439 39.3731 103.197 39.8182C102.956 40.2633 102.835 40.803 102.835 41.4375ZM117.432 48.2273C116.381 48.2273 115.474 47.9953 114.712 47.5312C113.954 47.0625 113.37 46.4091 112.958 45.571C112.551 44.7282 112.347 43.7481 112.347 42.6307C112.347 41.5133 112.551 40.5284 112.958 39.6761C113.37 38.8191 113.943 38.1515 114.676 37.6733C115.415 37.1903 116.277 36.9489 117.262 36.9489C117.83 36.9489 118.391 37.0436 118.945 37.233C119.499 37.4223 120.003 37.7301 120.458 38.1562C120.912 38.5777 121.275 39.1364 121.544 39.8324C121.814 40.5284 121.949 41.3854 121.949 42.4034V43.1136H113.54V41.6648H120.245C120.245 41.0492 120.122 40.5 119.875 40.017C119.634 39.5341 119.288 39.1529 118.838 38.8736C118.393 38.5942 117.868 38.4545 117.262 38.4545C116.594 38.4545 116.016 38.6203 115.529 38.9517C115.046 39.2784 114.674 39.7045 114.414 40.2301C114.153 40.7557 114.023 41.3191 114.023 41.9205V42.8864C114.023 43.7102 114.165 44.4086 114.449 44.9815C114.738 45.5497 115.138 45.983 115.65 46.2812C116.161 46.5748 116.755 46.7216 117.432 46.7216C117.873 46.7216 118.27 46.66 118.625 46.5369C118.985 46.4091 119.295 46.2197 119.556 45.9688C119.816 45.7131 120.017 45.3958 120.159 45.017L121.779 45.4716C121.608 46.0208 121.322 46.5038 120.919 46.9205C120.517 47.3324 120.02 47.6544 119.428 47.8864C118.836 48.1136 118.171 48.2273 117.432 48.2273ZM128.618 48.2273C127.709 48.2273 126.907 47.9976 126.211 47.5384C125.515 47.0743 124.97 46.4209 124.577 45.5781C124.184 44.7306 123.988 43.7292 123.988 42.5739C123.988 41.428 124.184 40.4337 124.577 39.5909C124.97 38.7481 125.517 38.0971 126.218 37.6378C126.918 37.1785 127.728 36.9489 128.647 36.9489C129.357 36.9489 129.918 37.0672 130.33 37.304C130.747 37.536 131.064 37.8011 131.282 38.0994C131.504 38.393 131.677 38.6345 131.8 38.8239H131.942V33.4545H133.618V48H131.999V46.3239H131.8C131.677 46.5227 131.502 46.7737 131.275 47.0767C131.047 47.375 130.723 47.6425 130.301 47.8793C129.88 48.1113 129.319 48.2273 128.618 48.2273ZM128.846 46.7216C129.518 46.7216 130.086 46.5464 130.55 46.196C131.014 45.8409 131.367 45.3509 131.608 44.7259C131.85 44.0961 131.971 43.3693 131.971 42.5455C131.971 41.7311 131.852 41.0185 131.615 40.4077C131.379 39.7921 131.028 39.3139 130.564 38.973C130.1 38.6274 129.527 38.4545 128.846 38.4545C128.135 38.4545 127.543 38.6368 127.07 39.0014C126.601 39.3613 126.248 39.8513 126.012 40.4716C125.78 41.0871 125.664 41.7784 125.664 42.5455C125.664 43.322 125.782 44.0275 126.019 44.6619C126.26 45.2917 126.615 45.7936 127.084 46.1676C127.558 46.5369 128.145 46.7216 128.846 46.7216ZM152.319 33.4545H154.08V43.0852C154.08 44.0795 153.846 44.9673 153.377 45.7486C152.913 46.5251 152.257 47.1383 151.409 47.5881C150.562 48.0331 149.568 48.2557 148.426 48.2557C147.285 48.2557 146.291 48.0331 145.444 47.5881C144.596 47.1383 143.938 46.5251 143.469 45.7486C143.005 44.9673 142.773 44.0795 142.773 43.0852V33.4545H144.534V42.9432C144.534 43.6534 144.691 44.2855 145.003 44.8395C145.316 45.3887 145.761 45.822 146.338 46.1392C146.921 46.4517 147.617 46.608 148.426 46.608C149.236 46.608 149.932 46.4517 150.515 46.1392C151.097 45.822 151.542 45.3887 151.85 44.8395C152.162 44.2855 152.319 43.6534 152.319 42.9432V33.4545ZM157.37 52.0909V37.0909H158.989V38.8239H159.188C159.311 38.6345 159.482 38.393 159.7 38.0994C159.922 37.8011 160.239 37.536 160.651 37.304C161.068 37.0672 161.631 36.9489 162.342 36.9489C163.26 36.9489 164.07 37.1785 164.771 37.6378C165.471 38.0971 166.018 38.7481 166.411 39.5909C166.804 40.4337 167.001 41.428 167.001 42.5739C167.001 43.7292 166.804 44.7306 166.411 45.5781C166.018 46.4209 165.474 47.0743 164.778 47.5384C164.082 47.9976 163.279 48.2273 162.37 48.2273C161.669 48.2273 161.108 48.1113 160.687 47.8793C160.265 47.6425 159.941 47.375 159.714 47.0767C159.487 46.7737 159.311 46.5227 159.188 46.3239H159.046V52.0909H157.37ZM159.018 42.5455C159.018 43.3693 159.138 44.0961 159.38 44.7259C159.621 45.3509 159.974 45.8409 160.438 46.196C160.902 46.5464 161.47 46.7216 162.143 46.7216C162.844 46.7216 163.428 46.5369 163.897 46.1676C164.371 45.7936 164.726 45.2917 164.962 44.6619C165.204 44.0275 165.325 43.322 165.325 42.5455C165.325 41.7784 165.206 41.0871 164.969 40.4716C164.737 39.8513 164.385 39.3613 163.911 39.0014C163.442 38.6368 162.853 38.4545 162.143 38.4545C161.461 38.4545 160.888 38.6274 160.424 38.973C159.96 39.3139 159.61 39.7921 159.373 40.4077C159.136 41.0185 159.018 41.7311 159.018 42.5455ZM182.91 39.5341L181.404 39.9602C181.309 39.7093 181.17 39.4654 180.985 39.2287C180.805 38.9872 180.559 38.7884 180.246 38.6321C179.934 38.4759 179.534 38.3977 179.046 38.3977C178.379 38.3977 177.822 38.5516 177.377 38.8594C176.937 39.1624 176.717 39.5483 176.717 40.017C176.717 40.4337 176.868 40.7628 177.171 41.0043C177.474 41.2457 177.948 41.447 178.592 41.608L180.211 42.0057C181.186 42.2424 181.913 42.6046 182.391 43.0923C182.87 43.5753 183.109 44.1979 183.109 44.9602C183.109 45.5852 182.929 46.1439 182.569 46.6364C182.214 47.1288 181.717 47.517 181.077 47.8011C180.438 48.0852 179.695 48.2273 178.847 48.2273C177.735 48.2273 176.814 47.9858 176.085 47.5028C175.355 47.0199 174.894 46.3144 174.7 45.3864L176.29 44.9886C176.442 45.5758 176.728 46.0161 177.15 46.3097C177.576 46.6032 178.132 46.75 178.819 46.75C179.6 46.75 180.22 46.5843 180.68 46.2528C181.144 45.9167 181.376 45.5142 181.376 45.0455C181.376 44.6667 181.243 44.3494 180.978 44.0938C180.713 43.8333 180.306 43.6392 179.756 43.5114L177.938 43.0852C176.939 42.8485 176.205 42.4815 175.737 41.9844C175.272 41.4825 175.04 40.8551 175.04 40.1023C175.04 39.4867 175.213 38.9422 175.559 38.4688C175.909 37.9953 176.385 37.6236 176.987 37.3537C177.593 37.0838 178.279 36.9489 179.046 36.9489C180.126 36.9489 180.973 37.1856 181.589 37.6591C182.209 38.1326 182.649 38.7576 182.91 39.5341ZM192.507 43.5398V37.0909H194.183V48H192.507V46.1534H192.393C192.137 46.7074 191.74 47.1785 191.2 47.5668C190.66 47.9503 189.978 48.142 189.154 48.142C188.473 48.142 187.867 47.9929 187.336 47.6946C186.806 47.3916 186.389 46.937 186.086 46.331C185.783 45.7202 185.632 44.9508 185.632 44.0227V37.0909H187.308V43.9091C187.308 44.7045 187.53 45.339 187.975 45.8125C188.425 46.286 188.998 46.5227 189.694 46.5227C190.111 46.5227 190.535 46.4162 190.966 46.2031C191.401 45.9901 191.766 45.6634 192.059 45.223C192.358 44.7827 192.507 44.2216 192.507 43.5398ZM201.685 48.2273C200.662 48.2273 199.781 47.9858 199.043 47.5028C198.304 47.0199 197.736 46.3546 197.338 45.5071C196.94 44.6596 196.741 43.6913 196.741 42.6023C196.741 41.4943 196.945 40.5166 197.352 39.669C197.764 38.8168 198.337 38.1515 199.071 37.6733C199.81 37.1903 200.671 36.9489 201.656 36.9489C202.423 36.9489 203.115 37.0909 203.73 37.375C204.346 37.6591 204.85 38.0568 205.243 38.5682C205.636 39.0795 205.88 39.6761 205.974 40.358H204.298C204.17 39.8608 203.886 39.4205 203.446 39.0369C203.01 38.6487 202.423 38.4545 201.685 38.4545C201.031 38.4545 200.458 38.625 199.966 38.9659C199.478 39.3021 199.097 39.7779 198.822 40.3935C198.553 41.0043 198.418 41.7216 198.418 42.5455C198.418 43.3883 198.55 44.1222 198.815 44.7472C199.085 45.3722 199.464 45.8575 199.952 46.2031C200.444 46.5488 201.022 46.7216 201.685 46.7216C202.12 46.7216 202.516 46.6458 202.871 46.4943C203.226 46.3428 203.527 46.125 203.773 45.8409C204.019 45.5568 204.194 45.2159 204.298 44.8182H205.974C205.88 45.4621 205.645 46.0421 205.271 46.5582C204.902 47.0696 204.412 47.4768 203.801 47.7798C203.195 48.0781 202.49 48.2273 201.685 48.2273ZM212.857 48.2273C211.834 48.2273 210.953 47.9858 210.214 47.5028C209.476 47.0199 208.908 46.3546 208.51 45.5071C208.112 44.6596 207.913 43.6913 207.913 42.6023C207.913 41.4943 208.117 40.5166 208.524 39.669C208.936 38.8168 209.509 38.1515 210.243 37.6733C210.982 37.1903 211.843 36.9489 212.828 36.9489C213.595 36.9489 214.286 37.0909 214.902 37.375C215.518 37.6591 216.022 38.0568 216.415 38.5682C216.808 39.0795 217.052 39.6761 217.146 40.358H215.47C215.342 39.8608 215.058 39.4205 214.618 39.0369C214.182 38.6487 213.595 38.4545 212.857 38.4545C212.203 38.4545 211.63 38.625 211.138 38.9659C210.65 39.3021 210.269 39.7779 209.994 40.3935C209.724 41.0043 209.589 41.7216 209.589 42.5455C209.589 43.3883 209.722 44.1222 209.987 44.7472C210.257 45.3722 210.636 45.8575 211.124 46.2031C211.616 46.5488 212.194 46.7216 212.857 46.7216C213.292 46.7216 213.688 46.6458 214.043 46.4943C214.398 46.3428 214.698 46.125 214.945 45.8409C215.191 45.5568 215.366 45.2159 215.47 44.8182H217.146C217.052 45.4621 216.817 46.0421 216.443 46.5582C216.074 47.0696 215.584 47.4768 214.973 47.7798C214.367 48.0781 213.661 48.2273 212.857 48.2273ZM224.17 48.2273C223.119 48.2273 222.213 47.9953 221.45 47.5312C220.693 47.0625 220.108 46.4091 219.696 45.571C219.289 44.7282 219.085 43.7481 219.085 42.6307C219.085 41.5133 219.289 40.5284 219.696 39.6761C220.108 38.8191 220.681 38.1515 221.415 37.6733C222.153 37.1903 223.015 36.9489 224 36.9489C224.568 36.9489 225.129 37.0436 225.683 37.233C226.237 37.4223 226.741 37.7301 227.196 38.1562C227.651 38.5777 228.013 39.1364 228.283 39.8324C228.553 40.5284 228.688 41.3854 228.688 42.4034V43.1136H220.278V41.6648H226.983C226.983 41.0492 226.86 40.5 226.614 40.017C226.372 39.5341 226.027 39.1529 225.577 38.8736C225.132 38.5942 224.606 38.4545 224 38.4545C223.332 38.4545 222.755 38.6203 222.267 38.9517C221.784 39.2784 221.412 39.7045 221.152 40.2301C220.892 40.7557 220.761 41.3191 220.761 41.9205V42.8864C220.761 43.7102 220.903 44.4086 221.188 44.9815C221.476 45.5497 221.876 45.983 222.388 46.2812C222.899 46.5748 223.493 46.7216 224.17 46.7216C224.611 46.7216 225.009 46.66 225.364 46.5369C225.723 46.4091 226.034 46.2197 226.294 45.9688C226.554 45.7131 226.756 45.3958 226.898 45.017L228.517 45.4716C228.347 46.0208 228.06 46.5038 227.658 46.9205C227.255 47.3324 226.758 47.6544 226.166 47.8864C225.574 48.1136 224.909 48.2273 224.17 48.2273ZM238.964 39.5341L237.459 39.9602C237.364 39.7093 237.224 39.4654 237.04 39.2287C236.86 38.9872 236.614 38.7884 236.301 38.6321C235.989 38.4759 235.589 38.3977 235.101 38.3977C234.433 38.3977 233.877 38.5516 233.432 38.8594C232.991 39.1624 232.771 39.5483 232.771 40.017C232.771 40.4337 232.923 40.7628 233.226 41.0043C233.529 41.2457 234.002 41.447 234.646 41.608L236.266 42.0057C237.241 42.2424 237.968 42.6046 238.446 43.0923C238.924 43.5753 239.163 44.1979 239.163 44.9602C239.163 45.5852 238.983 46.1439 238.624 46.6364C238.268 47.1288 237.771 47.517 237.132 47.8011C236.493 48.0852 235.75 48.2273 234.902 48.2273C233.789 48.2273 232.868 47.9858 232.139 47.5028C231.41 47.0199 230.948 46.3144 230.754 45.3864L232.345 44.9886C232.497 45.5758 232.783 46.0161 233.205 46.3097C233.631 46.6032 234.187 46.75 234.874 46.75C235.655 46.75 236.275 46.5843 236.734 46.2528C237.198 45.9167 237.43 45.5142 237.43 45.0455C237.43 44.6667 237.298 44.3494 237.033 44.0938C236.768 43.8333 236.36 43.6392 235.811 43.5114L233.993 43.0852C232.994 42.8485 232.26 42.4815 231.791 41.9844C231.327 41.4825 231.095 40.8551 231.095 40.1023C231.095 39.4867 231.268 38.9422 231.614 38.4688C231.964 37.9953 232.44 37.6236 233.041 37.3537C233.647 37.0838 234.334 36.9489 235.101 36.9489C236.18 36.9489 237.028 37.1856 237.643 37.6591C238.264 38.1326 238.704 38.7576 238.964 39.5341ZM249.414 39.5341L247.908 39.9602C247.813 39.7093 247.674 39.4654 247.489 39.2287C247.309 38.9872 247.063 38.7884 246.75 38.6321C246.438 38.4759 246.038 38.3977 245.55 38.3977C244.882 38.3977 244.326 38.5516 243.881 38.8594C243.441 39.1624 243.221 39.5483 243.221 40.017C243.221 40.4337 243.372 40.7628 243.675 41.0043C243.978 41.2457 244.452 41.447 245.096 41.608L246.715 42.0057C247.69 42.2424 248.417 42.6046 248.895 43.0923C249.373 43.5753 249.613 44.1979 249.613 44.9602C249.613 45.5852 249.433 46.1439 249.073 46.6364C248.718 47.1288 248.221 47.517 247.581 47.8011C246.942 48.0852 246.199 48.2273 245.351 48.2273C244.239 48.2273 243.318 47.9858 242.588 47.5028C241.859 47.0199 241.398 46.3144 241.203 45.3864L242.794 44.9886C242.946 45.5758 243.232 46.0161 243.654 46.3097C244.08 46.6032 244.636 46.75 245.323 46.75C246.104 46.75 246.724 46.5843 247.184 46.2528C247.648 45.9167 247.88 45.5142 247.88 45.0455C247.88 44.6667 247.747 44.3494 247.482 44.0938C247.217 43.8333 246.81 43.6392 246.26 43.5114L244.442 43.0852C243.443 42.8485 242.709 42.4815 242.24 41.9844C241.776 41.4825 241.544 40.8551 241.544 40.1023C241.544 39.4867 241.717 38.9422 242.063 38.4688C242.413 37.9953 242.889 37.6236 243.49 37.3537C244.096 37.0838 244.783 36.9489 245.55 36.9489C246.63 36.9489 247.477 37.1856 248.093 37.6591C248.713 38.1326 249.153 38.7576 249.414 39.5341ZM256.994 37.0909V38.5114H251.113V37.0909H256.994ZM252.874 48V35.5852C252.874 34.9602 253.021 34.4394 253.315 34.0227C253.608 33.6061 253.989 33.2936 254.458 33.0852C254.927 32.8769 255.422 32.7727 255.942 32.7727C256.354 32.7727 256.691 32.8059 256.951 32.8722C257.211 32.9384 257.406 33 257.533 33.0568L257.05 34.5057C256.965 34.4773 256.847 34.4418 256.695 34.3991C256.549 34.3565 256.354 34.3352 256.113 34.3352C255.559 34.3352 255.159 34.4749 254.913 34.7543C254.671 35.0336 254.55 35.4432 254.55 35.983V48H252.874ZM266.218 43.5398V37.0909H267.894V48H266.218V46.1534H266.104C265.848 46.7074 265.451 47.1785 264.911 47.5668C264.371 47.9503 263.689 48.142 262.865 48.142C262.184 48.142 261.578 47.9929 261.047 47.6946C260.517 47.3916 260.1 46.937 259.797 46.331C259.494 45.7202 259.343 44.9508 259.343 44.0227V37.0909H261.019V43.9091C261.019 44.7045 261.241 45.339 261.686 45.8125C262.136 46.286 262.709 46.5227 263.405 46.5227C263.822 46.5227 264.246 46.4162 264.676 46.2031C265.112 45.9901 265.477 45.6634 265.77 45.223C266.069 44.7827 266.218 44.2216 266.218 43.5398ZM272.64 33.4545V48H270.964V33.4545H272.64ZM277.386 33.4545V48H275.71V33.4545H277.386ZM281.536 52.0909C281.251 52.0909 280.998 52.0672 280.776 52.0199C280.553 51.9773 280.399 51.9347 280.314 51.892L280.74 50.4148C281.147 50.5189 281.507 50.5568 281.82 50.5284C282.132 50.5 282.409 50.3603 282.651 50.1094C282.897 49.8632 283.122 49.4631 283.325 48.9091L283.638 48.0568L279.604 37.0909H281.422L284.433 45.7841H284.547L287.558 37.0909H289.376L284.746 49.5909C284.537 50.1544 284.279 50.6207 283.972 50.9901C283.664 51.3641 283.306 51.6411 282.899 51.821C282.497 52.0009 282.042 52.0909 281.536 52.0909Z" fill="white"/>
</g>
</g>
<defs>
<filter id="filter0_d_70877_6386" x="0" y="0" width="320" height="82" filterUnits="userSpaceOnUse" color-interpolation-filters="sRGB">
<feFlood flood-opacity="0" result="BackgroundImageFix"/>
<feColorMatrix in="SourceAlpha" type="matrix" values="0 0 0 0 0 0 0 0 0 0 0 0 0 0 0 0 0 0 127 0" result="hardAlpha"/>
<feOffset/>
<feGaussianBlur stdDeviation="2"/>
<feColorMatrix type="matrix" values="0 0 0 0 0 0 0 0 0 0 0 0 0 0 0 0 0 0 0.1 0"/>
<feBlend mode="normal" in2="BackgroundImageFix" result="effect1_dropShadow_70877_6386"/>
<feBlend mode="normal" in="SourceGraphic" in2="effect1_dropShadow_70877_6386" result="shape"/>
</filter>
<filter id="filter1_d_70877_6386" x="0" y="0" width="320" height="82" filterUnits="userSpaceOnUse" color-interpolation-filters="sRGB">
<feFlood flood-opacity="0" result="BackgroundImageFix"/>
<feColorMatrix in="SourceAlpha" type="matrix" values="0 0 0 0 0 0 0 0 0 0 0 0 0 0 0 0 0 0 127 0" result="hardAlpha"/>
<feOffset/>
<feGaussianBlur stdDeviation="2"/>
<feComposite in2="hardAlpha" operator="out"/>
<feColorMatrix type="matrix" values="0 0 0 0 0 0 0 0 0 0 0 0 0 0 0 0 0 0 0.15 0"/>
<feBlend mode="normal" in2="BackgroundImageFix" result="effect1_dropShadow_70877_6386"/>
<feBlend mode="normal" in="SourceGraphic" in2="effect1_dropShadow_70877_6386" result="shape"/>
</filter>
</defs>
</svg>
